<svg width="24" height="24" viewBox="0 0 24 24" fill="none" xmlns="http://www.w3.org/2000/svg">
<path d="M16.2001 13.2C16.041 13.2 15.8884 13.2632 15.7758 13.3757C15.6633 13.4883 15.6001 13.6409 15.6001 13.8C15.6001 13.9591 15.6633 14.1117 15.7758 14.2243C15.8884 14.3368 16.041 14.4 16.2001 14.4H17.4001C17.5592 14.4 17.7118 14.3368 17.8244 14.2243C17.9369 14.1117 18.0001 13.9591 18.0001 13.8C18.0001 13.6409 17.9369 13.4883 17.8244 13.3757C17.7118 13.2632 17.5592 13.2 17.4001 13.2H16.2001ZM3.6001 5.40001C3.6001 4.92262 3.78974 4.46478 4.12731 4.12721C4.46487 3.78965 4.92271 3.60001 5.4001 3.60001H16.8001C17.4366 3.60001 18.0471 3.85286 18.4972 4.30295C18.9472 4.75304 19.2001 5.36349 19.2001 6.00001V6.32161C19.5649 6.53225 19.8679 6.83521 20.0785 7.20004C20.2892 7.56488 20.4001 7.97873 20.4001 8.40001V18C20.4001 18.6365 20.1472 19.247 19.6972 19.6971C19.2471 20.1471 18.6366 20.4 18.0001 20.4H6.6001C5.80445 20.4 5.04139 20.0839 4.47878 19.5213C3.91617 18.9587 3.6001 18.1957 3.6001 17.4V5.40001ZM16.8001 4.80001H5.4001C5.24097 4.80001 5.08836 4.86322 4.97583 4.97574C4.86331 5.08826 4.8001 5.24088 4.8001 5.40001C4.8001 5.55914 4.86331 5.71175 4.97583 5.82427C5.08836 5.93679 5.24097 6.00001 5.4001 6.00001H18.0001C18.0001 5.68175 17.8737 5.37652 17.6486 5.15148C17.4236 4.92643 17.1184 4.80001 16.8001 4.80001V4.80001ZM5.4001 7.20001C5.1901 7.20001 4.9873 7.16401 4.8001 7.09801V17.4C4.8001 17.8774 4.98974 18.3352 5.32731 18.6728C5.66487 19.0104 6.12271 19.2 6.6001 19.2H18.0001C18.3184 19.2 18.6236 19.0736 18.8486 18.8485C19.0737 18.6235 19.2001 18.3183 19.2001 18V8.40001C19.2001 8.08175 19.0737 7.77652 18.8486 7.55148C18.6236 7.32643 18.3184 7.20001 18.0001 7.20001H5.4001Z" fill="black"/>
</svg>
